<?xml version="1.0" encoding="UTF-8"?>
<svg id="Layer_1" xmlns="http://www.w3.org/2000/svg" viewBox="0 0 1920 1920">
  <defs>
    <style>
      .cls-1 {
        fill: #fff;
      }

      .cls-2 {
        fill: #5a7f70;
      }
    </style>
  </defs>
  <rect class="cls-2" width="1920" height="1920" rx="373.37" ry="373.37"/>
  <g>
    <path class="cls-1" d="M494.17,1531c-12.71-2.63-25.7-3.34-38.39-6.4-47.15-11.36-85.2-35.96-112.32-76.43-11.86-17.7-17.33-37.89-20.21-58.8-.34-2.47-1.55-5.97,1.38-7.4,2.37-1.15,4.36,1.55,6.24,2.99,26.78,20.57,57.6,30.64,90.8,31.81,119.71,4.23,239.47,1.43,359.21,1.44,32.38,0,56.22-18.21,72.62-45.49,22.64-37.69,44.51-75.84,67.09-113.57,18.41-30.76,45.05-50.37,80.77-56.31,10.38-1.73,21.05-2.38,31.59-2.42,60.84-.21,121.68,0,182.51-.11,67.34-.11,126.38-23.5,178.66-64.88,40.37-31.95,72.75-71.34,102.04-113.28,50.99-73.01,97.18-149.15,144.69-224.42,15.94-25.26,25.24-53.4,30.45-82.84.45-2.54-.08-6.5,2.52-7.25,3.27-.93,4.76,2.93,6.43,5.22,18.01,24.83,26.99,52.77,29.83,83.2,5.06,54.11-10.72,102.08-40.19,146.79-44.67,67.76-88.44,136.11-133.03,203.92-23.27,35.39-51.81,66.22-85.02,92.54-47.2,37.41-101.07,59.77-160.2,70.08-28.43,4.95-57.1,6.47-85.88,6.52-49.97.08-99.95.31-149.92-.07-34.87-.27-59.23,15.99-75.99,45.57-19.4,34.23-38.61,68.58-58.56,102.49-21.9,37.22-53.6,60.56-97.37,65.74-1.3.15-2.54.89-3.81,1.35h-325.94Z"/>
    <path class="cls-1" d="M1627.04,534.09c-7.09-57.04-38.51-96.37-88.7-121.18-35.88-17.74-74.87-23.75-114.66-23.79-173.83-.14-347.65-.18-521.48.06-28.18.04-56.39,1.32-84.41,4.62-59.07,6.97-115.49,22.51-167.8,51.66-52.15,29.05-95.25,68.15-129.02,117.13-31.92,46.29-58.6,95.85-87.21,144.2-61.35,103.71-122.77,207.39-183.5,311.48-15.28,26.2-29.92,53.07-36.46,83.24-1.94,8.97-3.23,18.08-4.82,27.13v21.18c.53,2.08,1.34,4.13,1.54,6.25,4.14,44.12,24.68,79.25,59.16,106.34,39.44,31,85.51,43.22,134.66,43.55,101.58.67,203.16.59,304.74.05,43.26-.23,78.73-17.25,102.04-54.94,22.69-36.7,44.15-74.17,66.9-110.84,20.69-33.34,50.92-51.4,90.46-54.29,10.12-.74,19.98.51,29.97.33,51.02-.92,102.05.02,153.09-1.02,40.27-.82,78.69-7.49,116.19-21.33,73.71-27.21,131.17-74.73,173.02-140.73,28.92-45.61,56.4-92.14,83.98-138.58,27.84-46.9,57.78-92.63,81.73-141.73,16.71-34.26,25.38-70.16,20.58-108.77ZM1431.67,732.1c-30.97,50.02-57.38,103.14-96.63,147.61-40.51,45.89-88.67,79.85-150.79,89.85-9.35,1.51-18.78,2.71-28.32,2.71-66.55-.04-133.09-.06-199.64-.02-38.16.02-73.64,9.11-105.12,31.45-23.27,16.51-40.02,38.56-54.67,62.72-19.14,31.55-38.66,62.89-58.95,93.71-17.05,25.89-42.6,36.78-73.05,36.88-41.28.13-82.57.07-123.86-.03-3.37,0-7.89,1.75-9.88-1.62-2.15-3.64,1.23-7.2,3.1-10.36,20.43-34.59,40.97-69.11,61.48-103.66,46.42-78.19,92.8-156.4,139.27-234.55,14.46-24.32,30.24-47.71,51-67.25,30.66-28.88,66.89-45.53,108.87-50.22,29.5-3.3,59.04-3.05,88.61-3.06,64.64-.02,129.29,0,193.93,0,81.48,0,162.97,0,244.45,0,2.44,0,4.89-.01,7.33.08,4.41.17,5.11,2.15,2.87,5.76ZM1515.02,561.45c-1.78,12.74-4.63,25.04-9.92,36.78-4.11,9.1-11.04,13.05-20.96,14.19-17.9,2.06-35.79,1.32-53.69,1.35-77.95.12-155.89.05-233.84.05v.06c-89.35,0-178.71-.55-268.06.25-39.36.35-78.59,4.89-116.76,14.99-51.36,13.6-90.7,45.06-123.73,85.63-44.1,54.15-78.57,114.43-112.75,174.94-29.49,52.22-59.42,104.19-89.04,156.33-24.8,43.64-49.39,87.41-74.19,131.05-7.57,13.32-12.29,15.6-27.27,12.82-12.24-2.27-24.59-4.08-35.94-10-21.76-11.33-30.22-29.33-24.45-53.43,5.14-21.44,16.03-40.31,27.06-59,62.49-105.88,125.17-211.64,187.85-317.41,18.82-31.76,37.22-63.78,56.86-95.02,42.58-67.76,102.15-113.59,179.18-136.41,35.92-10.64,72.52-15.24,109.97-15.8,69.77-1.04,139.53-2.05,209.29-1.12,24.67.33,49.41,2.37,74.03,1.06,49.41-2.63,98.8-.63,148.2-1.28,39.35-.52,78.67,1.21,118.04,1.83,22.58.35,35.08,3.83,51.77,9.9,21.1,7.66,31.43,26.04,28.34,48.22Z"/>
  </g>
</svg>